<svg width="127" height="209" viewBox="0 0 127 209" fill="none" xmlns="http://www.w3.org/2000/svg">
<ellipse cx="8.3842" cy="174.671" rx="8.3842" ry="8.40043" fill="#B200F8"/>
<ellipse cx="32.6694" cy="194.369" rx="8.3842" ry="8.40043" fill="#B200F8"/>
<ellipse cx="67.9409" cy="199.602" rx="8.38419" ry="8.40043" fill="#B200F8"/>
<ellipse cx="98.5866" cy="185.679" rx="8.3842" ry="8.40043" fill="#B200F8"/>
<ellipse cx="114.777" cy="157.87" rx="8.38419" ry="8.40042" fill="#B200F8"/>
<ellipse cx="117.617" cy="126.586" rx="8.38421" ry="8.40044" fill="#B200F8"/>
<ellipse cx="101.767" cy="96.4602" rx="8.09509" ry="8.40043" fill="#B200F8"/>
<ellipse cx="71.4102" cy="73.8659" rx="14.1664" ry="14.1938" fill="#F96316"/>
<ellipse cx="52.9072" cy="127.745" rx="14.1664" ry="14.1938" fill="#F96316"/>
<ellipse cx="23.4179" cy="108.626" rx="8.3842" ry="8.40043" fill="#00B4F2"/>
<ellipse cx="8.09509" cy="80.2386" rx="8.09509" ry="8.40044" fill="#00B4F2"/>
<ellipse cx="11.5644" cy="50.1129" rx="8.09509" ry="8.40044" fill="#00B4F2"/>
<ellipse cx="28.3328" cy="22.3046" rx="8.09509" ry="8.40043" fill="#00B4F2"/>
<ellipse cx="59.5567" cy="8.40044" rx="8.09508" ry="8.40044" fill="#00B4F2"/>
<ellipse cx="93.9608" cy="13.6145" rx="8.38419" ry="8.40043" fill="#00B4F2"/>
<ellipse cx="117.617" cy="33.3121" rx="8.3842" ry="8.40043" fill="#00B4F2"/>
</svg>
