<svg viewBox="0 0 127 195" fill="none" xmlns="http://www.w3.org/2000/svg">
<path d="M65.465 57.4272L66.7119 57.4926L67.9452 57.6882L69.1512 58.0117L70.3169 58.4596L71.4294 59.0271L72.4766 59.7078L73.447 60.4944L74.3299 61.3782L75.1157 62.3496L75.7957 63.3979L76.3626 64.5116L76.81 65.6785L77.1332 66.8858L77.3285 68.1203L77.3939 69.3686L77.3285 70.6168L77.1332 71.8513L76.81 73.0586L76.3626 74.2255L75.7957 75.3392L75.1157 76.3875L74.3299 77.3589L73.447 78.2427L72.4766 79.0293L71.4294 79.7101L70.3169 80.2775L69.1512 80.7254L67.9452 81.049L66.7119 81.2445L65.465 81.3099L64.2181 81.2445L62.9849 81.049L61.7788 80.7254L60.6131 80.2775L59.5006 79.7101L58.4534 79.0293L57.483 78.2427L56.6001 77.3589L55.8143 76.3875L55.1343 75.3392L54.5674 74.2255L54.12 73.0586L53.7968 71.8513L53.6015 70.6168L53.5361 69.3686L53.6015 68.1203L53.7968 66.8858L54.12 65.6785L54.5674 64.5116L55.1343 63.3979L55.8143 62.3496L56.6001 61.3782L57.483 60.4944L58.4534 59.7078L59.5006 59.0271L60.6131 58.4596L61.7788 58.0117L62.9849 57.6882L64.2181 57.4926L65.465 57.4272Z" fill="#F96316"/>
<path d="M100.496 81.0598L101.372 81.1058L102.239 81.2433L103.087 81.4709L103.906 81.786L104.688 82.1851L105.424 82.664L106.107 83.2173L106.727 83.8391L107.279 84.5224L107.757 85.2598L108.156 86.0432L108.47 86.864L108.698 87.7133L108.835 88.5817L108.881 89.4598L108.835 90.3378L108.698 91.2062L108.47 92.0555L108.156 92.8763L107.757 93.6598L107.279 94.3971L106.727 95.0805L106.107 95.7022L105.424 96.2555L104.688 96.7344L103.906 97.1335L103.087 97.4486L102.239 97.6762L101.372 97.8137L100.496 97.8598L99.6194 97.8137L98.7525 97.6762L97.9047 97.4486L97.0854 97.1335L96.3033 96.7344L95.5673 96.2555L94.8852 95.7022L94.2646 95.0805L93.7122 94.3971L93.2342 93.6598L92.8358 92.8763L92.5212 92.0555L92.2941 91.2062L92.1568 90.3378L92.1108 89.4598L92.1568 88.5817L92.2941 87.7133L92.5212 86.864L92.8358 86.0432L93.2342 85.2598L93.7122 84.5224L94.2646 83.8391L94.8852 83.2173L95.5673 82.664L96.3033 82.1851L97.0854 81.786L97.9047 81.4709L98.7525 81.2433L99.6194 81.1058L100.496 81.0598Z" fill="#B200F8"/>
<path d="M117.843 111.999L118.719 112.045L119.586 112.183L120.434 112.41L121.253 112.725L122.035 113.125L122.771 113.603L123.453 114.157L124.074 114.778L124.626 115.462L125.104 116.199L125.503 116.983L125.817 117.803L126.044 118.653L126.182 119.521L126.228 120.399L126.182 121.277L126.044 122.146L125.817 122.995L125.503 123.816L125.104 124.599L124.626 125.337L124.074 126.02L123.453 126.642L122.771 127.195L122.035 127.674L121.253 128.073L120.434 128.388L119.586 128.616L118.719 128.753L117.843 128.799L116.966 128.753L116.099 128.616L115.251 128.388L114.432 128.073L113.65 127.674L112.914 127.195L112.232 126.642L111.611 126.02L111.059 125.337L110.581 124.599L110.183 123.816L109.868 122.995L109.641 122.146L109.504 121.277L109.458 120.399L109.504 119.521L109.641 118.653L109.868 117.803L110.183 116.983L110.581 116.199L111.059 115.462L111.611 114.778L112.232 114.157L112.914 113.603L113.65 113.125L114.432 112.725L115.251 112.41L116.099 112.183L116.966 112.045L117.843 111.999Z" fill="#B200F8"/>
<path d="M115.072 144.463L115.949 144.509L116.816 144.647L117.664 144.874L118.483 145.19L119.265 145.589L120.001 146.068L120.683 146.621L121.304 147.243L121.856 147.926L122.334 148.663L122.733 149.447L123.047 150.268L123.274 151.117L123.412 151.985L123.457 152.863L123.412 153.741L123.274 154.61L123.047 155.459L122.733 156.28L122.334 157.063L121.856 157.801L121.304 158.484L120.683 159.106L120.001 159.659L119.265 160.138L118.483 160.537L117.664 160.852L116.816 161.08L115.949 161.217L115.072 161.263L114.196 161.217L113.329 161.08L112.481 160.852L111.662 160.537L110.88 160.138L110.144 159.659L109.462 159.106L108.841 158.484L108.289 157.801L107.811 157.063L107.412 156.28L107.098 155.459L106.871 154.61L106.733 153.741L106.687 152.863L106.733 151.985L106.871 151.117L107.098 150.268L107.412 149.447L107.811 148.663L108.289 147.926L108.841 147.243L109.462 146.621L110.144 146.068L110.88 145.589L111.662 145.19L112.481 144.874L113.329 144.647L114.196 144.509L115.072 144.463Z" fill="#B200F8"/>
<path d="M93.4412 169.436L94.3176 169.482L95.1845 169.62L96.0323 169.847L96.8516 170.163L97.6337 170.562L98.3697 171.041L99.0518 171.594L99.6724 172.216L100.225 172.899L100.703 173.636L101.101 174.42L101.416 175.241L101.643 176.09L101.78 176.958L101.826 177.836L101.78 178.714L101.643 179.583L101.416 180.432L101.101 181.253L100.703 182.036L100.225 182.774L99.6724 183.457L99.0518 184.079L98.3697 184.632L97.6337 185.111L96.8516 185.51L96.0323 185.825L95.1845 186.053L94.3176 186.19L93.4412 186.236L92.5647 186.19L91.6978 186.053L90.85 185.825L90.0307 185.51L89.2487 185.111L88.5126 184.632L87.8305 184.079L87.2099 183.457L86.6575 182.774L86.1795 182.036L85.7811 181.253L85.4665 180.432L85.2394 179.583L85.1021 178.714L85.0562 177.836L85.1021 176.958L85.2394 176.09L85.4665 175.241L85.7811 174.42L86.1795 173.636L86.6575 172.899L87.2099 172.216L87.8305 171.594L88.5126 171.041L89.2487 170.562L90.0307 170.163L90.85 169.847L91.6978 169.62L92.5647 169.482L93.4412 169.436Z" fill="#B200F8"/>
<path d="M62.1124 177.498L62.9888 177.544L63.8557 177.682L64.7035 177.91L65.5228 178.225L66.3049 178.624L67.0409 179.103L67.723 179.656L68.3436 180.278L68.896 180.961L69.374 181.698L69.7724 182.482L70.087 183.303L70.3141 184.152L70.4514 185.02L70.4974 185.898L70.4514 186.776L70.3141 187.645L70.087 188.494L69.7724 189.315L69.374 190.098L68.896 190.836L68.3436 191.519L67.723 192.141L67.0409 192.694L66.3049 193.173L65.5228 193.572L64.7035 193.887L63.8557 194.115L62.9888 194.252L62.1124 194.298L61.2359 194.252L60.369 194.115L59.5212 193.887L58.7019 193.572L57.9199 193.173L57.1838 192.694L56.5017 192.141L55.8811 191.519L55.3287 190.836L54.8507 190.098L54.4523 189.315L54.1377 188.494L53.9106 187.645L53.7733 186.776L53.7274 185.898L53.7733 185.02L53.9106 184.152L54.1377 183.303L54.4523 182.482L54.8507 181.698L55.3287 180.961L55.8811 180.278L56.5017 179.656L57.1838 179.103L57.9199 178.624L58.7019 178.225L59.5212 177.91L60.369 177.682L61.2359 177.544L62.1124 177.498Z" fill="#B200F8"/>
<path d="M30.3922 174.464L31.2687 174.51L32.1355 174.647L32.9833 174.875L33.8027 175.19L34.5847 175.589L35.3208 176.068L36.0029 176.621L36.6235 177.243L37.1758 177.926L37.6538 178.664L38.0523 179.447L38.3668 180.268L38.594 181.117L38.7313 181.986L38.7772 182.864L38.7313 183.742L38.594 184.61L38.3668 185.46L38.0523 186.28L37.6538 187.064L37.1758 187.801L36.6235 188.485L36.0029 189.106L35.3208 189.66L34.5847 190.138L33.8027 190.538L32.9833 190.853L32.1355 191.08L31.2687 191.218L30.3922 191.264L29.5157 191.218L28.6489 191.08L27.8011 190.853L26.9817 190.538L26.1997 190.138L25.4636 189.66L24.7815 189.106L24.1609 188.485L23.6086 187.801L23.1306 187.064L22.7321 186.28L22.4176 185.46L22.1904 184.61L22.0531 183.742L22.0072 182.864L22.0531 181.986L22.1904 181.117L22.4176 180.268L22.7321 179.447L23.1306 178.664L23.6086 177.926L24.1609 177.243L24.7815 176.621L25.4636 176.068L26.1997 175.589L26.9817 175.19L27.8011 174.875L28.6489 174.647L29.5157 174.51L30.3922 174.464Z" fill="#B200F8"/>
<path d="M8.89025 154.398L9.76672 154.444L10.6336 154.581L11.4814 154.809L12.3007 155.124L13.0827 155.523L13.8188 156.002L14.5009 156.555L15.1215 157.177L15.6739 157.86L16.1519 158.598L16.5503 159.381L16.8649 160.202L17.092 161.051L17.2293 161.92L17.2752 162.798L17.2293 163.676L17.092 164.544L16.8649 165.393L16.5503 166.214L16.1519 166.998L15.6739 167.735L15.1215 168.418L14.5009 169.04L13.8188 169.593L13.0827 170.072L12.3007 170.471L11.4814 170.786L10.6336 171.014L9.76672 171.152L8.89025 171.198L8.01378 171.152L7.14691 171.014L6.29914 170.786L5.47976 170.471L4.69775 170.072L3.96167 169.593L3.27959 169.04L2.65898 168.418L2.10664 167.735L1.62863 166.998L1.23017 166.214L0.91564 165.393L0.688481 164.544L0.551183 163.676L0.505249 162.798L0.551183 161.92L0.688481 161.051L0.91564 160.202L1.23017 159.381L1.62863 158.598L2.10664 157.86L2.65898 157.177L3.27959 156.555L3.96167 156.002L4.69775 155.523L5.47976 155.124L6.29914 154.809L7.14691 154.581L8.01378 154.444L8.89025 154.398Z" fill="#B200F8"/>
<path d="M57.776 110.552L59.0229 110.618L60.2561 110.813L61.4622 111.137L62.6279 111.585L63.7404 112.152L64.7876 112.833L65.758 113.62L66.6409 114.503L67.4266 115.475L68.1067 116.523L68.6736 117.637L69.121 118.804L69.4442 120.011L69.6395 121.246L69.7049 122.494L69.6395 123.742L69.4442 124.977L69.121 126.184L68.6736 127.351L68.1067 128.464L67.4266 129.513L66.6409 130.484L65.758 131.368L64.7876 132.155L63.7404 132.835L62.6279 133.403L61.4622 133.851L60.2561 134.174L59.0229 134.37L57.776 134.435L56.5291 134.37L55.2958 134.174L54.0898 133.851L52.9241 133.403L51.8115 132.835L50.7644 132.155L49.794 131.368L48.9111 130.484L48.1253 129.513L47.4453 128.464L46.8784 127.351L46.4309 126.184L46.1078 124.977L45.9125 123.742L45.8471 122.494L45.9125 121.246L46.1078 120.011L46.4309 118.804L46.8784 117.637L47.4453 116.523L48.1253 115.475L48.9111 114.503L49.794 113.62L50.7644 112.833L51.8115 112.152L52.9241 111.585L54.0898 111.137L55.2958 110.813L56.5291 110.618L57.776 110.552Z" fill="#F96316"/>
<path d="M26.036 97.2962L26.9125 97.3422L27.7793 97.4798L28.6271 97.7074L29.4465 98.0225L30.2285 98.4216L30.9646 98.9005L31.6467 99.4538L32.2673 100.076L32.8196 100.759L33.2976 101.496L33.6961 102.28L34.0106 103.1L34.2378 103.95L34.3751 104.818L34.421 105.696L34.3751 106.574L34.2378 107.443L34.0106 108.292L33.6961 109.113L33.2976 109.896L32.8196 110.634L32.2673 111.317L31.6467 111.939L30.9646 112.492L30.2285 112.971L29.4465 113.37L28.6271 113.685L27.7793 113.913L26.9125 114.05L26.036 114.096L25.1595 114.05L24.2927 113.913L23.4449 113.685L22.6255 113.37L21.8435 112.971L21.1074 112.492L20.4253 111.939L19.8047 111.317L19.2524 110.634L18.7744 109.896L18.3759 109.113L18.0614 108.292L17.8342 107.443L17.6969 106.574L17.651 105.696L17.6969 104.818L17.8342 103.95L18.0614 103.1L18.3759 102.28L18.7744 101.496L19.2524 100.759L19.8047 100.076L20.4253 99.4538L21.1074 98.9005L21.8435 98.4216L22.6255 98.0225L23.4449 97.7074L24.2927 97.4798L25.1595 97.3422L26.036 97.2962Z" fill="#00B4F2"/>
<path d="M8.68932 66.3568L9.56579 66.4028L10.4327 66.5404L11.2804 66.7679L12.0998 67.083L12.8818 67.4822L13.6179 67.9611L14.3 68.5144L14.9206 69.1361L15.4729 69.8194L15.9509 70.5568L16.3494 71.3402L16.6639 72.1611L16.8911 73.0104L17.0284 73.8788L17.0743 74.7568L17.0284 75.6349L16.8911 76.5033L16.6639 77.3526L16.3494 78.1734L15.9509 78.9568L15.4729 79.6942L14.9206 80.3775L14.3 80.9992L13.6179 81.5526L12.8818 82.0314L12.0998 82.4306L11.2804 82.7457L10.4327 82.9733L9.56579 83.1108L8.68932 83.1568L7.81285 83.1108L6.94598 82.9733L6.09821 82.7457L5.27883 82.4306L4.49682 82.0314L3.76074 81.5526L3.07866 80.9992L2.45805 80.3775L1.90571 79.6942L1.4277 78.9568L1.02924 78.1734L0.714713 77.3526L0.487554 76.5033L0.350255 75.6349L0.304321 74.7568L0.350255 73.8788L0.487554 73.0104L0.714713 72.1611L1.02924 71.3402L1.4277 70.5568L1.90571 69.8194L2.45805 69.1361L3.07866 68.5144L3.76074 67.9611L4.49682 67.4822L5.27883 67.083L6.09821 66.7679L6.94598 66.5404L7.81285 66.4028L8.68932 66.3568Z" fill="#00B4F2"/>
<path d="M11.4594 33.8926L12.3359 33.9386L13.2027 34.0762L14.0505 34.3037L14.8699 34.6188L15.6519 35.018L16.388 35.4969L17.0701 36.0502L17.6907 36.6719L18.243 37.3552L18.721 38.0926L19.1195 38.876L19.434 39.6969L19.6612 40.5462L19.7985 41.4146L19.8444 42.2926L19.7985 43.1706L19.6612 44.0391L19.434 44.8884L19.1195 45.7092L18.721 46.4926L18.243 47.23L17.6907 47.9133L17.0701 48.535L16.388 49.0884L15.6519 49.5672L14.8699 49.9664L14.0505 50.2815L13.2027 50.509L12.3359 50.6466L11.4594 50.6926L10.5829 50.6466L9.71606 50.509L8.86829 50.2815L8.04891 49.9664L7.2669 49.5672L6.53082 49.0884L5.84874 48.535L5.22813 47.9133L4.67579 47.23L4.19778 46.4926L3.79932 45.7092L3.48479 44.8884L3.25763 44.0391L3.12034 43.1706L3.0744 42.2926L3.12034 41.4146L3.25763 40.5462L3.48479 39.6969L3.79932 38.876L4.19778 38.0926L4.67579 37.3552L5.22813 36.6719L5.84874 36.0502L6.53082 35.4969L7.2669 35.018L8.04891 34.6188L8.86829 34.3037L9.71606 34.0762L10.5829 33.9386L11.4594 33.8926Z" fill="#00B4F2"/>
<path d="M32.8177 8.64609L33.6942 8.6921L34.5611 8.82965L35.4088 9.05721L36.2282 9.37231L37.0102 9.77147L37.7463 10.2503L38.4284 10.8037L39.049 11.4254L39.6013 12.1087L40.0794 12.8461L40.4778 13.6295L40.7923 14.4503L41.0195 15.2996L41.1568 16.168L41.2027 17.0461L41.1568 17.9241L41.0195 18.7925L40.7923 19.6418L40.4778 20.4627L40.0794 21.2461L39.6013 21.9835L39.049 22.6668L38.4284 23.2885L37.7463 23.8418L37.0102 24.3207L36.2282 24.7199L35.4088 25.035L34.5611 25.2625L33.6942 25.4001L32.8177 25.4461L31.9413 25.4001L31.0744 25.2625L30.2266 25.035L29.4073 24.7199L28.6252 24.3207L27.8892 23.8418L27.2071 23.2885L26.5865 22.6668L26.0341 21.9835L25.5561 21.2461L25.1577 20.4627L24.8431 19.6418L24.616 18.7925L24.4787 17.9241L24.4327 17.0461L24.4787 16.168L24.616 15.2996L24.8431 14.4503L25.1577 13.6295L25.5561 12.8461L26.0341 12.1087L26.5865 11.4254L27.2071 10.8037L27.8892 10.2503L28.6252 9.77147L29.4073 9.37231L30.2266 9.05721L31.0744 8.82965L31.9413 8.6921L32.8177 8.64609Z" fill="#00B4F2"/>
<path d="M64.4034 0.841278L65.2798 0.887294L66.1467 1.02484L66.9945 1.2524L67.8139 1.5675L68.5959 1.96666L69.332 2.44554L70.014 2.99886L70.6346 3.62058L71.187 4.30388L71.665 5.04128L72.0634 5.82469L72.378 6.64553L72.6051 7.49482L72.7424 8.36324L72.7884 9.24128L72.7424 10.1193L72.6051 10.9877L72.378 11.837L72.0634 12.6579L71.665 13.4413L71.187 14.1787L70.6346 14.862L70.014 15.4837L69.332 16.037L68.5959 16.5159L67.8139 16.9151L66.9945 17.2302L66.1467 17.4577L65.2798 17.5953L64.4034 17.6413L63.5269 17.5953L62.66 17.4577L61.8123 17.2302L60.9929 16.9151L60.2109 16.5159L59.4748 16.037L58.7927 15.4837L58.1721 14.862L57.6198 14.1787L57.1417 13.4413L56.7433 12.6579L56.4288 11.837L56.2016 10.9877L56.0643 10.1193L56.0184 9.24128L56.0643 8.36324L56.2016 7.49482L56.4288 6.64553L56.7433 5.82469L57.1417 5.04128L57.6198 4.30388L58.1721 3.62058L58.7927 2.99886L59.4748 2.44554L60.2109 1.96666L60.9929 1.5675L61.8123 1.2524L62.66 1.02484L63.5269 0.887294L64.4034 0.841278Z" fill="#00B4F2"/>
<path d="M96.1234 3.87589L96.9999 3.9219L97.8667 4.05945L98.7145 4.28701L99.5339 4.6021L100.316 5.00127L101.052 5.48014L101.734 6.03347L102.355 6.65519L102.907 7.33849L103.385 8.07588L103.783 8.8593L104.098 9.68014L104.325 10.5294L104.462 11.3978L104.508 12.2759L104.462 13.1539L104.325 14.0223L104.098 14.8716L103.783 15.6925L103.385 16.4759L102.907 17.2133L102.355 17.8966L101.734 18.5183L101.052 19.0716L100.316 19.5505L99.5339 19.9497L98.7145 20.2648L97.8667 20.4923L96.9999 20.6299L96.1234 20.6759L95.2469 20.6299L94.3801 20.4923L93.5323 20.2648L92.7129 19.9497L91.9309 19.5505L91.1948 19.0716L90.5127 18.5183L89.8921 17.8966L89.3398 17.2133L88.8618 16.4759L88.4633 15.6925L88.1488 14.8716L87.9216 14.0223L87.7843 13.1539L87.7384 12.2759L87.7843 11.3978L87.9216 10.5294L88.1488 9.68014L88.4633 8.8593L88.8618 8.07588L89.3398 7.33849L89.8921 6.65519L90.5127 6.03347L91.1948 5.48014L91.9309 5.00127L92.7129 4.6021L93.5323 4.28701L94.3801 4.05945L95.2469 3.9219L96.1234 3.87589Z" fill="#00B4F2"/>
<path d="M117.625 23.9421L118.502 23.9881L119.369 24.1257L120.217 24.3532L121.036 24.6683L121.818 25.0675L122.554 25.5464L123.236 26.0997L123.857 26.7214L124.409 27.4047L124.887 28.1421L125.285 28.9255L125.6 29.7464L125.827 30.5956L125.964 31.4641L126.01 32.3421L125.964 33.2201L125.827 34.0886L125.6 34.9379L125.285 35.7587L124.887 36.5421L124.409 37.2795L123.857 37.9628L123.236 38.5845L122.554 39.1378L121.818 39.6167L121.036 40.0159L120.217 40.331L119.369 40.5585L118.502 40.6961L117.625 40.7421L116.749 40.6961L115.882 40.5585L115.034 40.331L114.215 40.0159L113.433 39.6167L112.697 39.1378L112.015 38.5845L111.394 37.9628L110.842 37.2795L110.364 36.5421L109.965 35.7587L109.651 34.9379L109.424 34.0886L109.286 33.2201L109.24 32.3421L109.286 31.4641L109.424 30.5956L109.651 29.7464L109.965 28.9255L110.364 28.1421L110.842 27.4047L111.394 26.7214L112.015 26.0997L112.697 25.5464L113.433 25.0675L114.215 24.6683L115.034 24.3532L115.882 24.1257L116.749 23.9881L117.625 23.9421Z" fill="#00B4F2"/>
</svg>
